# xmcd
# Copyright (C) 1995-1998 Ti Kan
#
# Track frame offsets:
#       150
#       19111
#       34078
#       56842
#       81400
#       95560
#       109378
#       137023
#       153157
#       166486
#       182944
#       209161
#
# Disc length: 3022 seconds
#
# Revision: 2
# Processed by: cddbd v1.4PL0 Copyright (c) Steve Scherf et al.
# Submitted via: CD-Transfer v1.0
#
DISCID=ad0bcc0c
DTITLE=Rockin' Chair - Have A Seat
DYEAR=2003
DGENRE=
TTITLE0=The Night Train
TTITLE1=Sometimes
TTITLE2=Humanity's Lost
TTITLE3=Amok
TTITLE4=Tears In Your Eyes
TTITLE5=Brain
TTITLE6=Audrey
TTITLE7=Life Teacher
TTITLE8=Night Hunter
TTITLE9=Beggar's Death
TTITLE10=Winds From The South
TTITLE11=On The Run
EXTD=
EXTT0=
EXTT1=
EXTT2=
EXTT3=
EXTT4=
EXTT5=
EXTT6=
EXTT7=
EXTT8=
EXTT9=
EXTT10=
EXTT11=
PLAYORDER=
